<svg xmlns="http://www.w3.org/2000/svg" width="50.942" height="46.179" viewBox="0 0 50.942 46.179">
  <g id="Group_3974" data-name="Group 3974" transform="translate(0 2)">
    <g id="Group_3926" data-name="Group 3926" transform="translate(0 42.295)">
      <g id="Group_3925" data-name="Group 3925" transform="translate(0 0)">
        <g id="Group_3924" data-name="Group 3924">
          <rect id="Rectangle_301" data-name="Rectangle 301" width="50.939" height="1.793" transform="translate(0 0.091) rotate(-0.102)" fill="#fff"/>
        </g>
      </g>
    </g>
    <g id="Group_3929" data-name="Group 3929" transform="translate(3.707 38.414)">
      <g id="Group_3928" data-name="Group 3928">
        <g id="Group_3927" data-name="Group 3927">
          <rect id="Rectangle_302" data-name="Rectangle 302" width="43.527" height="1.793" fill="#fff"/>
        </g>
      </g>
    </g>
    <g id="Group_3932" data-name="Group 3932" transform="translate(4.541 25.467)">
      <g id="Group_3931" data-name="Group 3931">
        <g id="Group_3930" data-name="Group 3930">
          <rect id="Rectangle_303" data-name="Rectangle 303" width="1.793" height="11.847" fill="#fff"/>
        </g>
      </g>
    </g>
    <g id="Group_3935" data-name="Group 3935" transform="translate(43.619 25.467)">
      <g id="Group_3934" data-name="Group 3934">
        <g id="Group_3933" data-name="Group 3933">
          <rect id="Rectangle_304" data-name="Rectangle 304" width="1.793" height="11.847" fill="#fff"/>
        </g>
      </g>
    </g>
    <g id="Group_3938" data-name="Group 3938" transform="translate(2.806 22.859)">
      <g id="Group_3937" data-name="Group 3937">
        <g id="Group_3936" data-name="Group 3936">
          <rect id="Rectangle_305" data-name="Rectangle 305" width="45.329" height="1.793" fill="#fff"/>
        </g>
      </g>
    </g>
    <g id="Group_3941" data-name="Group 3941" transform="translate(20.603 -2)">
      <g id="Group_3940" data-name="Group 3940">
        <g id="Group_3939" data-name="Group 3939">
          <path id="Path_2457" data-name="Path 2457" d="M842.834,37.151a4.873,4.873,0,0,1-4.868-4.868,4.526,4.526,0,0,1,1.45-3.36,5.151,5.151,0,0,1,6.835,0,4.526,4.526,0,0,1,1.45,3.36A4.874,4.874,0,0,1,842.834,37.151Zm0-7.732a2.909,2.909,0,0,0-3.075,2.864,3.075,3.075,0,0,0,6.149,0A2.91,2.91,0,0,0,842.834,29.419Z" transform="translate(-837.966 -27.626)" fill="#fff"/>
        </g>
      </g>
    </g>
    <g id="Group_3944" data-name="Group 3944" transform="translate(30.987 2.536)">
      <g id="Group_3943" data-name="Group 3943">
        <g id="Group_3942" data-name="Group 3942">
          <path id="Path_2458" data-name="Path 2458" d="M857.092,44.356A5.358,5.358,0,1,1,862.45,39,5.363,5.363,0,0,1,857.092,44.356Zm0-8.922A3.564,3.564,0,1,0,860.657,39,3.568,3.568,0,0,0,857.092,35.434Z" transform="translate(-851.736 -33.641)" fill="#fff"/>
        </g>
      </g>
    </g>
    <g id="Group_3947" data-name="Group 3947" transform="translate(9.168 2.536)">
      <g id="Group_3946" data-name="Group 3946">
        <g id="Group_3945" data-name="Group 3945">
          <path id="Path_2459" data-name="Path 2459" d="M828.159,44.356A5.358,5.358,0,1,1,833.517,39,5.364,5.364,0,0,1,828.159,44.356Zm0-8.922A3.564,3.564,0,1,0,831.723,39,3.568,3.568,0,0,0,828.159,35.434Z" transform="translate(-822.802 -33.641)" fill="#fff"/>
        </g>
      </g>
    </g>
    <g id="Group_3950" data-name="Group 3950" transform="translate(24.574 11.978)">
      <g id="Group_3949" data-name="Group 3949">
        <g id="Group_3948" data-name="Group 3948">
          <rect id="Rectangle_306" data-name="Rectangle 306" width="1.793" height="5.018" fill="#fff"/>
        </g>
      </g>
    </g>
    <g id="Group_3953" data-name="Group 3953" transform="translate(24.565 9.417)">
      <g id="Group_3952" data-name="Group 3952">
        <g id="Group_3951" data-name="Group 3951">
          <rect id="Rectangle_307" data-name="Rectangle 307" width="1.793" height="1.867" fill="#fff"/>
        </g>
      </g>
    </g>
    <g id="Group_3963" data-name="Group 3963" transform="translate(28.348 14.301)">
      <g id="Group_3956" data-name="Group 3956">
        <g id="Group_3955" data-name="Group 3955">
          <g id="Group_3954" data-name="Group 3954">
            <path id="Path_2460" data-name="Path 2460" d="M864.067,55.271h-1.793V50.916a1.6,1.6,0,0,0-1.606-1.69H851.8a1.712,1.712,0,0,0-1.768,1.69v4.3h-1.793v-4.3a3.527,3.527,0,0,1,3.561-3.483h8.871a3.367,3.367,0,0,1,3.4,3.483Z" transform="translate(-848.236 -47.433)" fill="#fff"/>
          </g>
        </g>
      </g>
      <g id="Group_3959" data-name="Group 3959" transform="translate(6.924 4.358)">
        <g id="Group_3958" data-name="Group 3958">
          <g id="Group_3957" data-name="Group 3957">
            <rect id="Rectangle_308" data-name="Rectangle 308" width="1.793" height="3.226" fill="#fff"/>
          </g>
        </g>
      </g>
      <g id="Group_3962" data-name="Group 3962" transform="translate(6.924 1.649)">
        <g id="Group_3961" data-name="Group 3961">
          <g id="Group_3960" data-name="Group 3960">
            <rect id="Rectangle_309" data-name="Rectangle 309" width="1.793" height="1.994" fill="#fff"/>
          </g>
        </g>
      </g>
    </g>
    <g id="Group_3973" data-name="Group 3973" transform="translate(6.515 14.301)">
      <g id="Group_3966" data-name="Group 3966">
        <g id="Group_3965" data-name="Group 3965">
          <g id="Group_3964" data-name="Group 3964">
            <path id="Path_2461" data-name="Path 2461" d="M835.3,55.271h-1.793V50.916a1.64,1.64,0,0,0-1.664-1.69h-8.871a1.851,1.851,0,0,0-1.9,1.69v4.3h-1.793v-4.3a3.64,3.64,0,0,1,3.692-3.483h8.871a3.434,3.434,0,0,1,3.458,3.483Z" transform="translate(-819.284 -47.433)" fill="#fff"/>
          </g>
        </g>
      </g>
      <g id="Group_3969" data-name="Group 3969" transform="translate(7.019 4.253)">
        <g id="Group_3968" data-name="Group 3968">
          <g id="Group_3967" data-name="Group 3967">
            <rect id="Rectangle_310" data-name="Rectangle 310" width="1.793" height="3.648" fill="#fff"/>
          </g>
        </g>
      </g>
      <g id="Group_3972" data-name="Group 3972" transform="translate(7.019 1.66)">
        <g id="Group_3971" data-name="Group 3971">
          <g id="Group_3970" data-name="Group 3970">
            <rect id="Rectangle_311" data-name="Rectangle 311" width="1.793" height="1.888" fill="#fff"/>
          </g>
        </g>
      </g>
    </g>
  </g>
</svg>