<svg xmlns="http://www.w3.org/2000/svg" width="180.5" height="7.22" viewBox="0 0 180.5 7.22">
  <path id="line-shape" d="M83.825,4.132q24.507-.493,49.009-.992,16.87-.364,33.641-.818c4.25-.109,7-.677,6.6-1.287s-3.972-1.1-8.43-1.027c-8.124.14-16.148.388-24.253.555Q113.5,1.119,86.558,1.627c-15.445.265-30.981.432-46.472.646-1.579.022-3.206.048-4.687.12-6.407.311-7.541,1.281-2.152,2.169-3.627.044-6.93.091-10.242.124-4.9.048-9.815.064-14.691.135C3.615,4.891.539,5.31.074,5.867c-.5.6,1.524,1.086,5.564,1.279,1.343.064,2.887.081,4.322.07q25.556-.179,51.1-.375,21.691-.163,43.382-.329,33.845-.222,67.7-.414c4.739-.03,8.468-.6,8.354-1.249-.107-.619-4.076-1.136-9.1-1.155-2.321-.009-4.651.046-6.982.058q-31.649.167-63.3.331Q92.5,4.13,83.885,4.2c-.021-.023-.041-.046-.06-.069" transform="translate(180.5 7.22) rotate(180)" fill="#c1aa81" fill-rule="evenodd"/>
</svg>