<svg xmlns="http://www.w3.org/2000/svg" width="65.199" height="65.781" viewBox="0 0 65.199 65.781">
  <g id="Group_4103" data-name="Group 4103" transform="translate(0.229 0.577)">
    <g id="Group_4315" data-name="Group 4315" transform="translate(0 0)">
      <path id="Path_2477" data-name="Path 2477" d="M15.43,52.771s-1.96,1.06-2.795,1.5a4.807,4.807,0,0,1-2.551.64H4.5c-2.582,0-4.041-2.811-3.315-5.083s3-9.39,3-9.39c1.051-3.889,3.088-5.066,7.293-5.066H25.437a4.524,4.524,0,0,1,4.527,5.337c-.334,1.7-1.22,5.3-1.665,6.779A12.022,12.022,0,0,1,26.6,51.377l-2.152,2.255a4.307,4.307,0,0,1-5.022,1.245L12.76,51.365c-1.666-.873-2.675-1.476-2.675-3.432v-1.4h9.77l.917-2.791" transform="translate(0.096 3.409)" fill="none" stroke="#1a2c43" stroke-linecap="round" stroke-linejoin="round" stroke-width="2.6"/>
      <line id="Line_10" data-name="Line 10" x2="1.14" y2="2.279" transform="translate(9.041 47.667)" fill="none" stroke="#1a2c43" stroke-linecap="round" stroke-linejoin="round" stroke-width="2.6"/>
      <path id="Path_2478" data-name="Path 2478" d="M16.84,33.025A6.327,6.327,0,0,0,23.121,26.5V22.8a6.286,6.286,0,1,0-12.562,0v3.7A6.326,6.326,0,0,0,16.84,33.025Z" transform="translate(1.017 1.568)" fill="none" stroke="#1a2c43" stroke-linecap="round" stroke-linejoin="round" stroke-width="2.6"/>
      <line id="Line_11" data-name="Line 11" y2="6.281" transform="translate(24.138 57.623)" fill="none" stroke="#1a2c43" stroke-linecap="round" stroke-linejoin="round" stroke-width="2.6"/>
      <line id="Line_12" data-name="Line 12" y2="5.583" transform="translate(5.994 58.321)" fill="none" stroke="#1a2c43" stroke-linecap="round" stroke-linejoin="round" stroke-width="2.6"/>
      <line id="Line_13" data-name="Line 13" y2="3.441" transform="translate(40.887 60.462)" fill="none" stroke="#1a2c43" stroke-linecap="round" stroke-linejoin="round" stroke-width="2.6"/>
      <line id="Line_14" data-name="Line 14" y2="2.791" transform="translate(59.031 61.112)" fill="none" stroke="#1a2c43" stroke-linecap="round" stroke-linejoin="round" stroke-width="2.6"/>
      <path id="Path_2479" data-name="Path 2479" d="M37.293,28.347c5.583-1.4,9.77-6.978,9.77-6.978s2.791,3.375,2.791,6.978V28.8a6.326,6.326,0,0,1-6.28,6.524l-3.49,0V27.279" transform="translate(3.594 2.059)" fill="none" stroke="#1a2c43" stroke-linecap="round" stroke-linejoin="round" stroke-width="2.6"/>
      <path id="Path_2480" data-name="Path 2480" d="M53.015,24.774a9.771,9.771,0,0,0-19.542,0V35.939" transform="translate(3.226 1.446)" fill="none" stroke="#1a2c43" stroke-linecap="round" stroke-linejoin="round" stroke-width="2.6"/>
      <path id="Path_2481" data-name="Path 2481" d="M46.175,55.318s1.96,1.06,2.795,1.5a4.807,4.807,0,0,0,2.551.64H57.1c2.582,0,4.041-2.811,3.315-5.083s-3-9.39-3-9.39c-1.051-3.889-3.088-5.066-7.293-5.066H36.169a4.524,4.524,0,0,0-4.527,5.337c.334,1.7,1.22,5.3,1.665,6.779A12.022,12.022,0,0,0,35,53.924l2.152,2.255a4.307,4.307,0,0,0,5.022,1.245l6.669-3.513c1.666-.873,2.675-1.476,2.675-3.432v-1.4h-9.77l-.917-2.791" transform="translate(3.04 3.654)" fill="none" stroke="#1a2c43" stroke-linecap="round" stroke-linejoin="round" stroke-width="2.6"/>
      <line id="Line_15" data-name="Line 15" x1="1.14" y2="2.279" transform="translate(54.562 50.458)" fill="none" stroke="#1a2c43" stroke-linecap="round" stroke-linejoin="round" stroke-width="2.6"/>
      <path id="Path_2482" data-name="Path 2482" d="M30.023,1,25.836,12.165h5.583L27.231,23.332" transform="translate(2.49 0.096)" fill="none" stroke="#1a2c43" stroke-linecap="round" stroke-linejoin="round" stroke-width="2.6"/>
    </g>
  </g>
</svg>