<svg xmlns="http://www.w3.org/2000/svg" width="59.687" height="62.572" viewBox="0 0 59.687 62.572" id="icon-03">
    <g id="Group_4316" data-name="Group 4316" transform="translate(0.852 0.787)">
        <g id="Group_4317" data-name="Group 4317">
            <path id="Path_2545" data-name="Path 2545" d="M26.47,35.061V6.168A4.834,4.834,0,0,1,31.255,1.1H69.048" transform="translate(-18.942 -0.786)" fill="none" stroke="#c1aa81" stroke-miterlimit="10" stroke-width="2.2"/>
            <path id="Path_2546" data-name="Path 2546" d="M26.47,61.506v.151H65.083a3.965,3.965,0,0,0,3.965-3.965V5.9S68.6.274,74.719,1.729" transform="translate(-18.942 -1.065)" fill="none" stroke="#c1aa81" stroke-miterlimit="10" stroke-width="2.2"/>
            <path id="Path_2547" data-name="Path 2547" d="M175.813,1.1h4.095a3.7,3.7,0,0,1,3.765,3.631v7.913h-8.085" transform="translate(-125.938 -0.787)" fill="none" stroke="#c1aa81" stroke-miterlimit="10" stroke-width="2.2"/>
            <path id="Path_2548" data-name="Path 2548" d="M26.38,150.29c7.652-1.111,20.31-1.317,24.435.831,1.222.376,4.026,1.191,3.8-5.868A1.611,1.611,0,0,0,53,143.695c-5.051.014-5.4.1-5.4.1" transform="translate(-18.877 -102.827)" fill="none" stroke="#c1aa81" stroke-miterlimit="10" stroke-width="2.2"/>
            <path id="Path_2549" data-name="Path 2549" d="M39.752,125.407c-1.663-7.727-4.088-7.544-6.626-7.343a3.474,3.474,0,0,0-.4.055c-12.643,2.51-22.1,1.182-26.307.276a3.5,3.5,0,0,0-3.884,1.9c-1.367,2.828-2.707,7.475.783,10.956a3.517,3.517,0,0,0,3.135.953c.57-.107,1.185-.208,1.836-.3" transform="translate(-0.787 -84.44)" fill="none" stroke="#c1aa81" stroke-miterlimit="10" stroke-width="2.2"/>
            <path id="Path_2550" data-name="Path 2550" d="M43.117,102.394l4.517,5.722c-4.417,4.919-.3,11.795-.3,11.795" transform="translate(-30.854 -73.272)" fill="none" stroke="#c1aa81" stroke-linecap="round" stroke-miterlimit="10" stroke-width="2.2"/>
            <line id="Line_55" data-name="Line 55" x1="5.722" y2="3.815" transform="translate(16.78 31.029)" fill="none" stroke="#c1aa81" stroke-miterlimit="10" stroke-width="2.2"/>
            <path id="Path_2551" data-name="Path 2551" d="M104.582,118.276s-6.023,4.417-1.907,13.551l.251.552" transform="translate(-72.443 -84.637)" fill="none" stroke="#c1aa81" stroke-miterlimit="10" stroke-width="2.2"/>
            <path id="Path_2552" data-name="Path 2552" d="M11.863,190.69s-5.805.953-5.805-3.966v-4.919h39.9a1.94,1.94,0,0,1,1.1,2.058c-.1,1.506.15,6.525,2.61,6.725l-.251-.05" transform="translate(-4.335 -130.098)" fill="none" stroke="#c1aa81" stroke-miterlimit="10" stroke-width="2.2"/>
            <line id="Line_56" data-name="Line 56" y2="4.266" transform="translate(7.528 47.441)" fill="none" stroke="#c1aa81" stroke-miterlimit="10" stroke-width="2.2"/>
            <circle id="Ellipse_32" data-name="Ellipse 32" cx="11.192" cy="11.192" r="11.192" transform="translate(17.625 6.101)" fill="none" stroke="#c1aa81" stroke-miterlimit="10" stroke-width="2.2"/>
            <path id="Path_2553" data-name="Path 2553" d="M88.529,52.164a2.823,2.823,0,0,0,2.384,1.589H92.5a2.384,2.384,0,1,0,0-4.768h-1.59a2.384,2.384,0,0,1,0-4.768H92.5a2.823,2.823,0,0,1,2.384,1.589" transform="translate(-63.35 -31.641)" fill="none" stroke="#c1aa81" stroke-miterlimit="10" stroke-width="2.2"/>
            <path id="Path_2554" data-name="Path 2554" d="M0-1.1V1.589" transform="translate(28.357 10.986)" fill="none" stroke="#c1aa81" stroke-width="2.2"/>
            <line id="Line_58" data-name="Line 58" y2="2.388" transform="translate(28.357 22.112)" fill="none" stroke="#c1aa81" stroke-miterlimit="10" stroke-width="2.2"/>
        </g>
    </g>
</svg>