<svg xmlns="http://www.w3.org/2000/svg" width="230.342" height="51" viewBox="0 0 230.342 51">
  <g id="buckley-logo" transform="translate(-199.674 -95.628)">
    <g id="Group_3462" data-name="Group 3462" transform="translate(241.876 135.583)">
      <path id="Path_2268" data-name="Path 2268" d="M288.986,180.477l-.306,2.9H280.7v-.491c.567-.046.721-.368.721-.967V174.08c0-.6-.154-.905-.721-.966v-.476h3.682v.476c-.583.06-.737.368-.737.966v8.406h2.792a2.3,2.3,0,0,0,2.163-2.008Z" transform="translate(-280.703 -172.485)" fill="#1a2c43"/>
      <path id="Path_2269" data-name="Path 2269" d="M331.772,182.885v.491h-4.142v-.491c.6-.031.874-.4.659-.967l-.721-1.809h-3.957l-.675,1.809c-.215.6.015.921.6.967v.491H320.9v-.491a1.2,1.2,0,0,0,1.073-.967l2.839-7.7c.23-.6.138-1.059-.476-1.1v-.476h2.454l3.881,9.28C330.914,182.486,331.205,182.839,331.772,182.885Zm-4.556-3.651-1.687-4.326-1.6,4.326Z" transform="translate(-299.963 -172.485)" fill="#1a2c43"/>
      <path id="Path_2270" data-name="Path 2270" d="M377.878,172.638v.491c-.535.03-.782.276-.966.859l-2.975,9.388h-1.088l-2.578-7.886-2.562,7.886H366.62l-3.253-9.419c-.216-.629-.4-.783-.981-.829v-.491h3.972v.491c-.491.03-.767.445-.567,1.074l1.979,6.151,2.516-7.716h1.227L374,180.324l1.964-6.244c.215-.675.031-.936-.491-.951v-.491Z" transform="translate(-319.844 -172.485)" fill="#1a2c43"/>
      <path id="Path_2271" data-name="Path 2271" d="M426.365,172.638v.491a1.1,1.1,0,0,0-.967.629l-2.716,4.878v3.282c0,.6.153.921.721.967v.491h-3.682v-.491c.583-.046.736-.368.736-.967v-3.083l-3.007-4.817c-.322-.521-.614-.844-1.181-.89v-.491h3.957v.491a.5.5,0,0,0-.46.814l2.317,3.957,2.18-3.927c.275-.476.06-.844-.415-.844v-.491Z" transform="translate(-345.664 -172.485)" fill="#1a2c43"/>
      <path id="Path_2272" data-name="Path 2272" d="M468.912,180.477l-.307,2.9h-7.931v-.491c.583-.046.722-.368.722-.967V174.08c0-.6-.139-.905-.722-.966v-.476h7.64l.291,2.884h-.384a2.287,2.287,0,0,0-2.163-2.01h-2.439v3.974h1.627c1.058,0,1.258-.353,1.364-1h.384v2.884h-.384c-.106-.644-.306-1-1.364-1h-1.627v4.11h2.747a2.3,2.3,0,0,0,2.162-2.008Z" transform="translate(-366.941 -172.485)" fill="#1a2c43"/>
      <path id="Path_2273" data-name="Path 2273" d="M512.013,182.885v.491h-2.884l-2.67-4.357h-1.411v2.9c0,.6.154.921.737.967v.491H502.1v-.491c.584-.046.738-.368.738-.967V174.08c0-.6-.154-.905-.738-.951v-.491h4.265c2.547,0,4.311,1.227,4.311,3.191a2.944,2.944,0,0,1-1.995,2.776l2.164,3.313A1.9,1.9,0,0,0,512.013,182.885Zm-6.151-4.74a2.315,2.315,0,1,0,0-4.618h-.814v4.618Z" transform="translate(-386.792 -172.485)" fill="#1a2c43"/>
      <path id="Path_2274" data-name="Path 2274" d="M553.685,181.057c-.46,1.7-2.086,2.332-3.789,2.332a6.564,6.564,0,0,1-3.743-1.044V179.83h.384c.552,1.764,1.594,2.9,3.053,2.992a1.775,1.775,0,0,0,2.1-1.55c.153-1.381-.844-1.734-2.164-2.485-1.549-.889-3.482-2.04-2.853-4.4.384-1.489,1.857-2.04,3.421-2.04a5.02,5.02,0,0,1,3.083,1.043l.016,2.209h-.383c-.477-1.9-1.273-2.623-2.516-2.684-1.181-.062-1.749.582-1.779,1.334-.046,1.058,1.044,1.717,2.439,2.531C552.872,177.9,554.329,178.741,553.685,181.057Z" transform="translate(-407.901 -172.344)" fill="#1a2c43"/>
    </g>
    <g id="Group_3463" data-name="Group 3463" transform="translate(199.674 95.628)">
      <path id="Path_2275" data-name="Path 2275" d="M221.327,114.353c-.286,4.581-4.366,7.015-10.307,7.015H199.674v-1.146c1.323-.106,1.683-.858,1.683-2.255V99.68c0-1.4-.36-2.111-1.683-2.255v-1.11h9.234c5.94,0,10.021,2.04,9.841,6.514a5.323,5.323,0,0,1-4.009,5.047C218.786,108.3,221.541,110.6,221.327,114.353Zm-12.991-16h-1.791v8.912h1.791c3.829,0,5.188-1.682,5.188-4.438S212.164,98.355,208.336,98.355Zm7.3,16c0-3.185-1.969-4.9-5.8-4.9h-3.293v9.842h3.293C213.667,119.292,215.636,117.575,215.636,114.353Z" transform="translate(-199.674 -95.957)" fill="#1a2c43"/>
      <path id="Path_2276" data-name="Path 2276" d="M288.634,96.315V97.46c-1.324.108-1.682.824-1.682,2.22v11.81c0,6.049-3.579,10.237-9.7,10.237-5.657,0-10.559-3.078-10.559-10.021V99.68c0-1.4-.358-2.111-1.682-2.22V96.315h8.59V97.46c-1.36.108-1.719.824-1.719,2.22v12.24c0,5.082,2.685,7.767,6.658,7.767,4.295,0,6.335-3.651,6.335-7.839V99.68c0-1.4-.358-2.111-1.683-2.22V96.315Z" transform="translate(-230.983 -95.957)" fill="#1a2c43"/>
      <path id="Path_2277" data-name="Path 2277" d="M357.432,113.558l-.824,5.4a13.458,13.458,0,0,1-8.947,2.434c-7.658-.358-13.6-5.082-13.6-12.884s5.834-12.885,13.494-12.885a17.694,17.694,0,0,1,9.054,2.433v5.656h-1c-1.073-4.474-3.937-6.8-7.838-6.764-5.368.072-7.983,5.117-7.983,11.56,0,6.8,3.258,11.345,8.341,11.561,4.223.178,6.836-1.969,8.3-6.515Z" transform="translate(-264.069 -95.628)" fill="#1a2c43"/>
      <path id="Path_2278" data-name="Path 2278" d="M429.329,120.222v1.146h-9.735v-1.146c1.253-.071,1.683-.93.858-2.255l-5.94-9.377-3.294,3.472v5.905c0,1.4.358,2.148,1.682,2.255v1.146h-8.553v-1.146c1.323-.106,1.683-.858,1.683-2.255V99.68c0-1.4-.36-2.111-1.683-2.22V96.315H412.9V97.46c-1.324.108-1.682.824-1.682,2.22v9.807l9.056-9.735c.822-.86.965-1.5.75-1.861-.143-.322-.393-.394-.894-.43V96.315h6.621V97.46c-1.181.108-1.862.286-3.866,2.363l-4.581,4.8,8.2,13.349A4.4,4.4,0,0,0,429.329,120.222Z" transform="translate(-297.749 -95.957)" fill="#1a2c43"/>
      <path id="Path_2279" data-name="Path 2279" d="M495.678,114.6l-.715,6.764H476.352v-1.146c1.323-.106,1.682-.858,1.682-2.255V99.68c0-1.4-.359-2.111-1.682-2.255v-1.11h8.59v1.11c-1.362.143-1.719.859-1.719,2.255v19.613h6.515c3.328,0,4.544-2.792,5.045-4.688Z" transform="translate(-332.252 -95.957)" fill="#1a2c43"/>
      <path id="Path_2280" data-name="Path 2280" d="M557.059,114.6l-.716,6.764h-18.5v-1.146c1.361-.106,1.682-.858,1.682-2.255V99.68c0-1.4-.321-2.111-1.682-2.255v-1.11h17.824l.68,6.729h-.9c-.5-1.9-1.682-4.688-5.045-4.688h-5.691v9.27h3.794c2.47,0,2.934-.823,3.185-2.327h.9v6.729h-.9c-.251-1.5-.716-2.327-3.185-2.327h-3.794v9.591h6.407c3.328,0,4.544-2.792,5.045-4.688Z" transform="translate(-361.715 -95.957)" fill="#1a2c43"/>
      <path id="Path_2281" data-name="Path 2281" d="M620.273,96.315V97.46a2.573,2.573,0,0,0-2.255,1.468l-6.335,11.382v7.659c0,1.4.358,2.148,1.682,2.255v1.146h-8.589v-1.146c1.359-.106,1.717-.858,1.717-2.255v-7.194l-7.014-11.237c-.752-1.217-1.432-1.969-2.757-2.077V96.315h9.233V97.46a1.162,1.162,0,0,0-1.073,1.9l5.4,9.234,5.082-9.162c.644-1.109.144-1.969-.967-1.969V96.315Z" transform="translate(-389.93 -95.957)" fill="#1a2c43"/>
    </g>
    <rect id="Rectangle_142" data-name="Rectangle 142" width="194.048" height="0.875" transform="translate(217.822 127.866)" fill="#1a2c43"/>
  </g>
</svg>