<svg id="icon-02" xmlns="http://www.w3.org/2000/svg" width="59.605" height="59.553" viewBox="0 0 59.605 59.553">
    <g id="Group_4104" data-name="Group 4104" transform="translate(0.105 0.1)">
        <g id="Group_4107" data-name="Group 4107">
            <path id="Path_2483" data-name="Path 2483" d="M54.886,37.325c1.455-.019,3.517-1.291,3.514-2.838V17.223a4.27,4.27,0,0,0-2.569-3.82,24.736,24.736,0,0,0-15.18,0,4.277,4.277,0,0,0-2.569,3.82V34.487" fill="none" stroke="#c1aa81" stroke-width="2.2"/>
            <path id="Path_2484" data-name="Path 2484" d="M19.1,20.634l4.773,14.939-5.2,1.792" fill="none" stroke="#c1aa81" stroke-width="2.2"/>
            <path id="Path_2485" data-name="Path 2485" d="M33.544,34.271a3.235,3.235,0,1,1-3.234-3.236A3.236,3.236,0,0,1,33.544,34.271Z" fill="none" stroke="#c1aa81" stroke-width="2.2"/>
            <rect id="Rectangle_349" data-name="Rectangle 349" width="8.906" height="9.664" transform="translate(25.572 40.869)" fill="none" stroke="#c1aa81" stroke-width="2.2"/>
            <line id="Line_16" data-name="Line 16" x2="3.758" y2="4.901" transform="translate(21.763 35.968)" fill="none" stroke="#c1aa81" stroke-width="2.2"/>
            <line id="Line_17" data-name="Line 17" y1="4.901" x2="3.757" transform="translate(34.529 35.968)" fill="none" stroke="#c1aa81" stroke-width="2.2"/>
            <line id="Line_18" data-name="Line 18" y2="8.147" transform="translate(27.467 50.344)" fill="none" stroke="#c1aa81" stroke-width="2.2"/>
            <line id="Line_19" data-name="Line 19" y2="8.147" transform="translate(32.583 50.344)" fill="none" stroke="#c1aa81" stroke-width="2.2"/>
            <path id="Path_2486" data-name="Path 2486" d="M7.832,49.185l.984,9.168h4.772q.493-4.584.986-9.168" fill="none" stroke="#c1aa81" stroke-width="2.2"/>
            <line id="Line_20" data-name="Line 20" y2="18.445" transform="translate(48.24 39.909)" fill="none" stroke="#c1aa81" stroke-width="2.2"/>
            <path id="Path_2487" data-name="Path 2487" d="M42.329,19.875V57.217H54.155V19.875" fill="none" stroke="#c1aa81" stroke-width="2.2"/>
            <line id="Line_21" data-name="Line 21" y2="18.445" transform="translate(48.24 39.909)" fill="none" stroke="#c1aa81" stroke-width="2.2"/>
            <path id="Path_2488" data-name="Path 2488" d="M19.1,20.634a7.111,7.111,0,0,0-2.852-3.82A12.484,12.484,0,0,0,11.2,15.621h0a12.484,12.484,0,0,0-5.046,1.193A7.127,7.127,0,0,0,3.3,20.634q-1.131,3.771-2.258,7.543c.752,2.515,1.675,5.536,2.429,8.051" fill="none" stroke="#c1aa81" stroke-width="2.2"/>
            <path id="Path_2489" data-name="Path 2489" d="M6.762,21.58Q4.24,33.948,1.718,46.314H20.687L15.644,21.58" fill="none" stroke="#c1aa81" stroke-width="2.2"/>
            <path id="Path_2490" data-name="Path 2490" d="M53.8,6.558A5.556,5.556,0,1,1,48.242,1,5.557,5.557,0,0,1,53.8,6.558Z" fill="none" stroke="#c1aa81" stroke-width="2.2"/>
            <circle id="Ellipse_10" data-name="Ellipse 10" cx="5.272" cy="5.272" r="5.272" transform="translate(5.931 4.697)" fill="none" stroke="#c1aa81" stroke-width="2.2"/>
        </g>
    </g>
</svg>