<svg xmlns="http://www.w3.org/2000/svg" width="110" height="15.891" viewBox="0 0 110 15.891">
  <g id="star" transform="translate(-909.5 -88.5)">
    <path id="Path_2283" data-name="Path 2283" d="M-1383.454,145.515l.871-5.986-4.245-3.918,6.095-.762,2.612-5.224,3.156,5.224,5.333.762-4.353,3.918,1.088,5.986-5.224-2.83Z" transform="translate(2296.328 -41.125)" fill="#fff"/>
    <path id="Path_2284" data-name="Path 2284" d="M-1383.454,145.515l.871-5.986-4.245-3.918,6.095-.762,2.612-5.224,3.156,5.224,5.333.762-4.353,3.918,1.088,5.986-5.224-2.83Z" transform="translate(2319.374 -41.125)" fill="#fff"/>
    <path id="Path_2285" data-name="Path 2285" d="M-1383.454,145.515l.871-5.986-4.245-3.918,6.095-.762,2.612-5.224,3.156,5.224,5.333.762-4.353,3.918,1.088,5.986-5.224-2.83Z" transform="translate(2342.418 -41.125)" fill="#fff"/>
    <path id="Path_2286" data-name="Path 2286" d="M-1383.454,145.515l.871-5.986-4.245-3.918,6.095-.762,2.612-5.224,3.156,5.224,5.333.762-4.353,3.918,1.088,5.986-5.224-2.83Z" transform="translate(2366.087 -41.125)" fill="#fff"/>
    <path id="Path_2287" data-name="Path 2287" d="M-1383.454,145.515l.871-5.986-4.245-3.918,6.095-.762,2.612-5.224,3.156,5.224,5.333.762-4.353,3.918,1.088,5.986-5.224-2.83Z" transform="translate(2389.132 -41.125)" fill="#fff"/>
  </g>
</svg>
